# xmcd
#
# Track frame offsets:
#	150
#	11927
#	22567
#	35908
#	51293
#	65648
#	82338
#	100479
#	114893
#	127800
#
# Disc length: 2021 seconds
#
# Revision: 3
# Processed by: cddbd v1.5.2PL0 Copyright (c) Steve Scherf et al.
# Submitted via: audiograbber 1.83.01
#
DISCID=8307e30a
DTITLE=Various Artist - New Country - Volume 4 - Number 13
DYEAR=1997
DGENRE=Country
TTITLE0=Rich McCready - Let Me Take That Ol' Heartache
TTITLE1=David Lee Murphy - Kentucky Girl
TTITLE2=LeRoy Preston - The Other Side Of You
TTITLE3=Pam Gadd - 40, 80 Or 10
TTITLE4=Blue Rodeo - I Could Never Be That Man
TTITLE5=Ed Pettersen and The High Line Riders - DWIOU
TTITLE6=Marcia Ball - American Dream
TTITLE7=Amazing Rhythm Aces - This Time Ain't Gonna Be No Next Time
TTITLE8=Craig Smith - My Old Kentucky Home
TTITLE9=Lari White - There Is Power In The Blood
EXTD=
EXTT0=
EXTT1=
EXTT2=
EXTT3=
EXTT4=
EXTT5=
EXTT6=
EXTT7=
EXTT8=
EXTT9=
PLAYORDER=
